<?xml version="1.0" encoding="UTF-8"?>
<!-- Generator: visioncortex VTracer 0.6.5 -->
<svg version="1.1" xmlns="http://www.w3.org/2000/svg" width="1024" height="768">
<path d="M0 0 C42.24 0 84.48 0 128 0 C128.33 50.16 128.66 100.32 129 152 C130.98 148.87 130.98 148.87 141 133 C143.32 129.67 145.62 126.41 148.06 123.19 C148.65 122.41 149.23 121.63 149.83 120.82 C151.54 118.54 153.27 116.27 155 114 C155.25 113.68 155.25 113.68 156.5 112.04 C169.94 94.46 184.77 78.18 200.38 62.5 C201.02 61.85 201.66 61.21 202.32 60.54 C206.72 56.16 211.3 52.05 216 48 C217.05 47.07 218.09 46.15 219.14 45.22 C228.35 37.13 238.07 29.8 247.93 22.53 C249.35 21.48 250.76 20.4 252.14 19.3 C254 18 254 18 256 18 C256 202.14 256 386.28 256 576 C213.76 576 171.52 576 128 576 C127.67 437.73 127.34 299.46 127 157 C91.52 222.05 66.09 293.15 65.8 368.12 C65.79 369.33 65.78 370.54 65.78 371.79 C65.76 375.67 65.75 379.55 65.75 383.44 C65.75 384.1 65.75 384.76 65.75 385.44 C65.74 405.14 66.03 424.49 69 444 C69.17 445.2 69.34 446.4 69.52 447.64 C75.65 490.05 87.52 531.91 105.6 570.82 C107 574 107 574 107 576 C71.69 576 36.38 576 0 576 C0 385.92 0 195.84 0 0 Z " fill="#000000" transform="translate(0,0)"/>
<path d="M0 0 C8.58 0 17.16 0 26 0 C20.37 4.5 20.37 4.5 17.19 6.47 C16.5 6.9 15.82 7.32 15.12 7.76 C14.42 8.19 13.72 8.62 13 9.06 C12.3 9.5 11.6 9.93 10.88 10.38 C7.27 12.61 3.64 14.81 0 17 C0 11.39 0 5.78 0 0 Z " fill="#000000" transform="translate(256,0)"/>
<path d="M0 0 C42.24 0 84.48 0 128 0 C128 190.08 128 380.16 128 576 C170.24 576 212.48 576 256 576 C256 385.92 256 195.84 256 0 C360.5 0 360.5 0 383 15 C383.33 10.05 383.66 5.1 384 0 C426.24 0 468.48 0 512 0 C512 50.16 512 100.32 512 152 C509.64 149.05 507.5 146.37 505.48 143.24 C505.02 142.54 504.56 141.85 504.09 141.13 C503.61 140.38 503.12 139.64 502.62 138.88 C493.49 125.04 483.71 111.66 473 99 C472.17 98 471.35 97 470.5 95.98 C456.65 79.29 441.61 62.96 425 49 C424.52 48.58 424.52 48.58 422.11 46.45 C410.4 36.14 397.98 26.65 385 18 C384.67 202.14 384.34 386.28 384 576 C415.68 576 447.36 576 480 576 C480 608.01 480 640.02 480 673 C490.56 673 501.12 673 512 673 C512 704.35 512 735.7 512 768 C469.76 768 427.52 768 384 768 C383.67 763.38 383.34 758.76 383 754 C381.7 754.99 380.41 755.99 379.07 757.01 C364.49 767.59 353.62 769.97 335.88 769.37 C333.56 769.34 331.24 769.32 328.91 769.31 C322.88 769.25 316.85 769.12 310.82 768.96 C303.53 768.79 296.25 768.73 288.97 768.65 C277.98 768.51 266.99 768.24 256 768 C256 736.65 256 705.3 256 673 C213.76 673 171.52 673 128 673 C128 704.35 128 735.7 128 768 C85.76 768 43.52 768 0 768 C0 736.65 0 705.3 0 673 C-31.68 673 -63.36 673 -96 673 C-96 640.99 -96 608.98 -96 576 C-64.32 576 -32.64 576 0 576 C0 385.92 0 195.84 0 0 Z M384 673 C384 699.07 384 725.14 384 752 C391.89 747.49 391.89 747.49 394.95 745.15 C395.62 744.63 396.3 744.12 397 743.58 C397.35 743.31 397.35 743.31 399.12 741.94 C399.86 741.37 400.6 740.8 401.36 740.21 C408.08 735 414.58 729.57 421 724 C421.71 723.39 422.42 722.78 423.16 722.15 C425.12 720.45 427.06 718.73 429 717 C429.84 716.25 430.69 715.5 431.55 714.73 C437.81 709.08 443.85 703.26 449.81 697.31 C450.52 696.61 451.22 695.91 451.95 695.19 C458.95 688.17 465.03 680.95 471 673 C442.29 673 413.58 673 384 673 Z " fill="#000000" transform="translate(384,0)"/>
<path d="M0 0 C2.51 2.51 3.81 4.15 5.46 7.16 C5.93 8 6.39 8.84 6.87 9.71 C7.12 10.17 7.12 10.17 8.38 12.5 C8.9 13.47 9.42 14.44 9.96 15.44 C42.4 76.09 63.93 144.86 64.2 214.12 C64.21 215.33 64.22 216.54 64.22 217.79 C64.24 221.67 64.25 225.55 64.25 229.44 C64.25 229.77 64.25 229.77 64.25 231.44 C64.26 251.14 63.97 270.49 61 290 C60.91 290.6 60.91 290.6 60.48 293.64 C54.05 338.17 41 381.24 22 422 C14.74 422 7.48 422 0 422 C0 384.38 0 346.76 0 308 C-7.92 308 -15.84 308 -24 308 C-24 304.04 -24 300.08 -24 296 C-43.8 296 -63.6 296 -84 296 C-84 276.2 -84 256.4 -84 236 C-87.96 236 -91.92 236 -96 236 C-96 232.04 -96 228.08 -96 224 C-92.04 224 -88.08 224 -84 224 C-84 204.2 -84 184.4 -84 164 C-64.2 164 -44.4 164 -24 164 C-24 160.04 -24 156.08 -24 152 C-16.08 152 -8.16 152 0 152 C0 101.84 0 51.68 0 0 Z M-24 164 C-24 183.8 -24 203.6 -24 224 C-20.04 224 -16.08 224 -12 224 C-12 204.2 -12 184.4 -12 164 C-15.96 164 -19.92 164 -24 164 Z M-24 236 C-24 255.8 -24 275.6 -24 296 C-20.04 296 -16.08 296 -12 296 C-12 276.2 -12 256.4 -12 236 C-15.96 236 -19.92 236 -24 236 Z " fill="#000000" transform="translate(896,154)"/>
<path d="M0 0 C3.96 0 7.92 0 12 0 C12 3.96 12 7.92 12 12 C8.04 12 4.08 12 0 12 C0 8.04 0 4.08 0 0 Z " fill="#000000" transform="translate(800,306)"/>
<path d="M0 0 C3.96 0 7.92 0 12 0 C12 3.96 12 7.92 12 12 C8.04 12 4.08 12 0 12 C0 8.04 0 4.08 0 0 Z " fill="#000000" transform="translate(800,450)"/>
<path d="M0 0 C42.24 0 84.48 0 128 0 C128 31.35 128 62.7 128 95 C85.76 95 43.52 95 0 95 C0 63.65 0 32.3 0 0 Z " fill="#000000" transform="translate(0,673)"/>
<path d="M0 0 C28.38 0 56.76 0 86 0 C86 25.74 86 51.48 86 78 C82.17 76.47 80.1 75.54 77.03 73.13 C76.3 72.56 75.57 71.99 74.82 71.4 C74.05 70.8 73.29 70.19 72.5 69.56 C71.7 68.94 70.91 68.31 70.09 67.67 C63.26 62.27 56.58 56.7 50 51 C49.64 50.7 49.64 50.7 47.85 49.15 C45.88 47.45 43.94 45.73 42 44 C41.16 43.25 40.31 42.5 39.45 41.73 C33.19 36.08 27.15 30.26 21.19 24.31 C20.83 23.96 20.83 23.96 19.05 22.19 C12.05 15.17 5.97 7.95 0 0 Z " fill="#000000" transform="translate(170,673)"/>
<path d="M0 0 C1.55 0.99 3.09 1.98 4.69 3 C7.98 5.1 11.29 7.18 14.62 9.21 C15.22 9.57 15.81 9.93 16.42 10.3 C18.13 11.34 19.84 12.37 21.54 13.4 C22.35 13.93 23.16 14.46 24 15 C24 15.33 24 15.66 24 16 C16.08 16 8.16 16 0 16 C0 10.72 0 5.44 0 0 Z " fill="#000000" transform="translate(256,752)"/>
</svg>
