<?xml version="1.0" encoding="UTF-8"?>
<!-- Generator: visioncortex VTracer 0.6.5 -->
<svg version="1.1" xmlns="http://www.w3.org/2000/svg" width="1024" height="768">
<path d="M0 0 C337.92 0 675.84 0 1024 0 C1024 253.44 1024 506.88 1024 768 C686.08 768 348.16 768 0 768 C0 514.56 0 261.12 0 0 Z " fill="#5EBD61" transform="translate(0,0)"/>
<path d="M0 0 C0 190.08 0 380.16 0 576 C-133.65 576 -267.3 576 -405 576 C-417.81 546.89 -417.81 546.89 -421.19 537.12 C-421.59 535.97 -422 534.82 -422.41 533.63 C-431.62 506.99 -438.47 480.04 -442.75 452.19 C-442.95 450.9 -443.15 449.62 -443.35 448.29 C-446.45 427.2 -447.37 406.32 -447.31 385 C-447.31 383.7 -447.31 382.39 -447.31 381.05 C-447.26 362.18 -446.85 343.69 -444 325 C-443.83 323.8 -443.66 322.6 -443.48 321.36 C-436.83 275.34 -423.17 230.87 -403 189 C-402.59 188.13 -402.18 187.27 -401.75 186.37 C-386.8 155.02 -367.43 125.52 -345 99 C-344.18 98 -343.35 97 -342.5 95.98 C-332.79 84.27 -322.35 73.28 -311.62 62.5 C-310.98 61.85 -310.34 61.21 -309.68 60.54 C-305.28 56.16 -300.7 52.05 -296 48 C-294.95 47.07 -293.91 46.15 -292.86 45.22 C-283.01 36.56 -272.59 28.73 -262 21 C-261.62 20.72 -261.62 20.72 -259.69 19.31 C-257.53 17.74 -255.36 16.18 -253.19 14.62 C-252.58 14.19 -251.97 13.75 -251.35 13.29 C-182.82 -35.12 -83.9 0 0 0 Z " fill="#0000FE" transform="translate(512,0)"/>
<path d="M0 0 C168.96 0 337.92 0 512 0 C512 190.08 512 380.16 512 576 C477.02 576 442.04 576 406 576 C409.35 565.94 409.35 565.94 411.06 562.14 C433.11 511.76 446.99 456.02 447.2 400.88 C447.21 399.67 447.22 398.46 447.22 397.21 C447.24 393.33 447.25 389.45 447.25 385.56 C447.25 384.9 447.25 384.24 447.25 383.56 C447.26 363.86 446.97 344.51 444 325 C443.83 323.8 443.66 322.6 443.48 321.36 C436.83 275.34 423.17 230.87 403 189 C402.59 188.13 402.18 187.27 401.75 186.37 C386.8 155.02 367.43 125.52 345 99 C344.59 98.5 344.59 98.5 342.5 95.98 C328.65 79.29 313.61 62.96 297 49 C296.05 48.16 295.09 47.32 294.11 46.45 C282.4 36.14 269.98 26.65 257 18 C256.67 202.14 256.34 386.28 256 576 C171.52 576 87.04 576 0 576 C0 385.92 0 195.84 0 0 Z " fill="#00FE01" transform="translate(512,0)"/>
<path d="M0 0 C7.89 4.51 7.89 4.51 10.95 6.85 C11.62 7.37 12.3 7.88 13 8.42 C13.7 8.96 14.4 9.5 15.12 10.06 C15.86 10.63 16.6 11.2 17.36 11.79 C24.08 17 30.58 22.43 37 28 C37.36 28.31 37.36 28.31 39.16 29.85 C41.12 31.55 43.06 33.27 45 35 C45.84 35.75 46.69 36.5 47.55 37.27 C53.81 42.92 59.85 48.74 65.81 54.69 C66.52 55.39 67.22 56.09 67.95 56.81 C72.5 61.38 76.8 66.11 81 71 C81.93 72.05 82.85 73.1 83.78 74.14 C92.44 83.99 100.26 94.42 108 105 C108.54 105.74 109.08 106.47 109.64 107.23 C117.83 118.4 125.09 130.01 132 142 C132.22 142.38 132.22 142.38 133.32 144.28 C168.96 206.34 191.92 279.18 192.2 351.12 C192.21 352.33 192.22 353.54 192.22 354.79 C192.24 358.67 192.25 362.55 192.25 366.44 C192.25 366.77 192.25 366.77 192.25 368.44 C192.26 388.14 191.97 407.49 189 427 C188.91 427.6 188.91 427.6 188.48 430.64 C183.77 463.28 175.37 494.91 164.06 525.88 C163.69 526.89 163.32 527.91 162.94 528.97 C159.1 539.24 154.53 548.92 150 559 C184.98 559 219.96 559 256 559 C256 591.01 256 623.02 256 656 C249.97 655.96 249.97 655.96 219.45 655.76 C211.81 655.74 204.16 655.72 196.51 655.72 C184.38 655.72 172.24 655.7 160.11 655.59 C151.27 655.52 142.43 655.48 133.6 655.51 C128.92 655.52 124.24 655.51 119.57 655.44 C115.16 655.38 110.75 655.38 106.34 655.42 C104.73 655.43 103.12 655.41 101.51 655.37 C94.77 655.21 88.71 655.13 83.42 659.85 C80.31 663.02 77.65 666.45 75 670 C73.79 671.42 72.58 672.82 71.34 674.21 C71.07 674.52 71.07 674.52 69.73 676.08 C66.16 680.05 62.35 683.8 58.56 687.56 C57.75 688.37 56.95 689.19 56.12 690.02 C51.24 694.89 46.23 699.52 41 704 C39.95 704.93 38.9 705.85 37.86 706.78 C30.98 712.82 23.88 718.49 16.56 724 C16.14 724.32 16.14 724.32 14.02 725.92 C13.61 726.23 13.61 726.23 11.57 727.75 C10.85 728.28 10.14 728.81 9.41 729.36 C6.39 731.42 3.17 733.19 0 735 C0 708.93 0 682.86 0 656 C2.64 656 5.28 656 8 656 C8 623.99 8 591.98 8 559 C5.36 559 2.72 559 0 559 C0 374.53 0 190.06 0 0 Z " fill="#FD0000" transform="translate(768,17)"/>
<path d="M0 0 C0 184.14 0 368.28 0 558 C-49.17 558 -98.34 558 -149 558 C-161.81 528.89 -161.81 528.89 -165.19 519.12 C-165.59 517.97 -166 516.82 -166.41 515.63 C-175.62 488.99 -182.47 462.04 -186.75 434.19 C-186.95 432.9 -187.15 431.62 -187.35 430.29 C-190.45 409.2 -191.37 388.32 -191.31 367 C-191.31 365.7 -191.31 364.39 -191.31 363.05 C-191.26 344.18 -190.85 325.69 -188 307 C-187.83 305.8 -187.66 304.6 -187.48 303.36 C-180.83 257.34 -167.17 212.87 -147 171 C-146.59 170.13 -146.18 169.27 -145.75 168.37 C-130.8 137.02 -111.43 107.52 -89 81 C-88.18 80 -87.35 79 -86.5 77.98 C-76.79 66.27 -66.35 55.28 -55.62 44.5 C-54.98 43.85 -54.34 43.21 -53.68 42.54 C-49.28 38.16 -44.7 34.05 -40 30 C-38.95 29.07 -37.91 28.15 -36.86 27.22 C-27.65 19.13 -17.93 11.8 -8.07 4.53 C-6.65 3.48 -5.24 2.4 -3.86 1.3 C-2 0 -2 0 0 0 Z " fill="#00FEFE" transform="translate(256,18)"/>
<path d="M0 0 C42.24 0 84.48 0 128 0 C128 190.08 128 380.16 128 576 C85.76 576 43.52 576 0 576 C0 385.92 0 195.84 0 0 Z " fill="#FFFF00" transform="translate(512,0)"/>
<path d="M0 0 C0 190.08 0 380.16 0 576 C-42.24 576 -84.48 576 -128 576 C-128.22 511.07 -128.22 511.07 -128.28 490.98 C-128.28 490.26 -128.29 489.54 -128.29 488.81 C-128.36 464.69 -128.42 440.57 -128.47 416.46 C-128.47 415.67 -128.47 414.88 -128.47 414.07 C-128.5 396.97 -128.53 379.87 -128.56 362.77 C-128.58 354.38 -128.59 346 -128.6 337.61 C-128.61 336.77 -128.61 335.94 -128.61 335.08 C-128.66 308.02 -128.74 280.97 -128.84 253.91 C-128.94 226.11 -129.01 198.31 -129.03 170.51 C-129.04 166.58 -129.04 162.65 -129.04 158.73 C-129.04 157.96 -129.05 157.18 -129.05 156.39 C-129.06 143.94 -129.11 131.5 -129.18 119.06 C-129.24 106.55 -129.26 94.05 -129.25 81.54 C-129.24 74.76 -129.25 67.98 -129.31 61.21 C-129.36 55 -129.37 48.8 -129.33 42.6 C-129.33 40.35 -129.34 38.11 -129.37 35.86 C-129.61 19.26 -129.61 19.26 -125.99 14.18 C-123.35 12.18 -123.35 12.18 -117 9 C-83.46 -11.12 -39.12 0 0 0 Z " fill="#FE00FD" transform="translate(384,0)"/>
<path d="M0 0 C93.06 0 186.12 0 282 0 C278.05 3.16 274.17 5.79 269.88 8.38 C260.16 14.34 251.07 21.1 242 28 C241.35 28.5 240.69 28.99 240.02 29.51 C217.43 46.79 195.33 66.19 177 88 C176.16 88.95 175.32 89.91 174.45 90.89 C165.71 100.82 157.8 111.32 150 122 C149.46 122.74 148.92 123.47 148.36 124.23 C140.17 135.4 132.91 147.01 126 159 C125.56 159.75 125.13 160.51 124.68 161.28 C89.04 223.34 66.08 296.18 65.8 368.12 C65.79 369.33 65.78 370.54 65.78 371.79 C65.76 375.67 65.75 379.55 65.75 383.44 C65.75 384.1 65.75 384.76 65.75 385.44 C65.74 405.14 66.03 424.49 69 444 C69.17 445.2 69.34 446.4 69.52 447.64 C75.65 490.05 87.52 531.91 105.6 570.82 C107 574 107 574 107 576 C71.69 576.33 36.38 576.66 0 577 C0 386.59 0 196.18 0 0 Z " fill="#000000" transform="translate(0,0)"/>
<path d="M0 0 C92.73 0 185.46 0 281 0 C281 190.08 281 380.16 281 576 C246.02 576 211.04 576 175 576 C178.35 565.94 178.35 565.94 180.06 562.14 C202.11 511.76 215.99 456.02 216.2 400.88 C216.21 399.67 216.22 398.46 216.22 397.21 C216.24 393.33 216.25 389.45 216.25 385.56 C216.25 384.9 216.25 384.24 216.25 383.56 C216.26 363.86 215.97 344.51 213 325 C212.91 324.4 212.91 324.4 212.48 321.36 C205.83 275.34 192.17 230.87 172 189 C171.59 188.13 171.18 187.27 170.75 186.37 C155.8 155.02 136.43 125.52 114 99 C113.17 98 112.35 97 111.5 95.98 C97.65 79.29 82.61 62.96 66 49 C65.05 48.16 64.09 47.32 63.11 46.45 C53.18 37.71 42.68 29.8 32 22 C31.62 21.72 31.62 21.72 29.69 20.31 C21.51 14.36 13.24 8.73 4.47 3.68 C2.96 2.81 1.48 1.91 0 1 C0 0.67 0 0.34 0 0 Z " fill="#FEFEFE" transform="translate(743,0)"/>
<path d="M0 0 C0.9 -0.02 1.79 -0.04 2.71 -0.06 C4.28 -0.09 5.85 -0.14 7.42 -0.21 C10.81 -0.27 12.49 -0.05 15.26 2 C17.02 4.15 17.02 4.15 18.71 6.92 C21.32 11.03 24.47 14.34 27.83 17.84 C28.47 18.52 29.11 19.2 29.77 19.9 C39.06 29.69 48.43 39.46 58.77 48.15 C59.72 49 60.67 49.84 61.65 50.7 C73.36 61.01 85.79 70.5 98.77 79.15 C98.77 53.41 98.77 27.67 98.77 1.15 C183.25 1.15 267.73 1.15 354.77 1.15 C354.77 32.5 354.77 63.85 354.77 96.15 C185.81 96.15 16.85 96.15 -157.23 96.15 C-157.23 64.8 -157.23 33.45 -157.23 1.15 C-120.13 0.9 -120.13 0.9 -104.49 0.8 C-93.72 0.73 -82.95 0.65 -72.18 0.58 C-64.34 0.53 -56.49 0.48 -48.65 0.42 C-44.5 0.4 -40.35 0.37 -36.21 0.34 C-35.41 0.33 -34.61 0.33 -33.79 0.32 C-32.22 0.31 -30.64 0.3 -29.06 0.29 C-25.35 0.26 -21.63 0.24 -17.91 0.23 C-11.94 0.2 -5.97 0.16 0 0 Z " fill="#0000FD" transform="translate(157.23446655273438,671.845947265625)"/>
<path d="M0 0 C2.51 2.51 3.81 4.15 5.46 7.16 C5.93 8 6.39 8.84 6.87 9.71 C7.12 10.17 7.12 10.17 8.38 12.5 C8.9 13.47 9.42 14.44 9.96 15.44 C42.4 76.09 63.93 144.86 64.2 214.12 C64.21 215.33 64.22 216.54 64.22 217.79 C64.24 221.67 64.25 225.55 64.25 229.44 C64.25 229.77 64.25 229.77 64.25 231.44 C64.26 251.14 63.97 270.49 61 290 C60.91 290.6 60.91 290.6 60.48 293.64 C54.05 338.17 41 381.24 22 422 C14.74 422 7.48 422 0 422 C0 384.38 0 346.76 0 308 C-7.92 308 -15.84 308 -24 308 C-24 304.04 -24 300.08 -24 296 C-43.8 296 -63.6 296 -84 296 C-84 276.2 -84 256.4 -84 236 C-87.96 236 -91.92 236 -96 236 C-96 232.04 -96 228.08 -96 224 C-92.04 224 -88.08 224 -84 224 C-84 204.2 -84 184.4 -84 164 C-64.2 164 -44.4 164 -24 164 C-24 160.04 -24 156.08 -24 152 C-16.08 152 -8.16 152 0 152 C0 101.84 0 51.68 0 0 Z " fill="#000000" transform="translate(896,154)"/>
<path d="M0 0 C81.84 0 163.68 0 248 0 C248 32.01 248 64.02 248 97 C241.97 96.96 241.97 96.96 211.45 96.76 C203.81 96.74 196.16 96.72 188.51 96.72 C176.38 96.72 164.24 96.7 152.11 96.59 C143.27 96.52 134.43 96.48 125.6 96.51 C120.92 96.52 116.24 96.51 111.57 96.44 C107.16 96.38 102.75 96.38 98.34 96.42 C96.73 96.43 95.12 96.41 93.51 96.37 C86.77 96.21 80.71 96.13 75.42 100.85 C72.31 104.02 69.65 107.45 67 111 C65.79 112.42 64.58 113.82 63.34 115.21 C62.81 115.83 62.27 116.44 61.73 117.08 C58.16 121.05 54.35 124.8 50.56 128.56 C49.75 129.37 48.95 130.19 48.12 131.02 C43.24 135.89 38.23 140.52 33 145 C31.95 145.93 30.9 146.85 29.86 147.78 C22.98 153.82 15.88 159.49 8.56 165 C7.72 165.63 6.88 166.27 6.02 166.92 C5.21 167.53 4.4 168.13 3.57 168.75 C2.85 169.28 2.14 169.81 1.41 170.36 C-1.61 172.42 -4.83 174.19 -8 176 C-8 149.93 -8 123.86 -8 97 C-5.36 97 -2.72 97 0 97 C0 64.99 0 32.98 0 0 Z " fill="#7900FE" transform="translate(776,576)"/>
<path d="M0 0 C0.9 -0.02 1.79 -0.04 2.71 -0.06 C4.28 -0.09 5.85 -0.14 7.42 -0.21 C10.81 -0.27 12.49 -0.05 15.26 2 C17.02 4.15 17.02 4.15 18.71 6.92 C21.32 11.03 24.47 14.34 27.83 17.84 C28.47 18.52 29.11 19.2 29.77 19.9 C39.06 29.69 48.43 39.46 58.77 48.15 C59.72 49 60.67 49.84 61.65 50.7 C79.79 66.68 99.7 81.42 120.52 93.73 C120.89 93.96 120.89 93.96 122.77 95.15 C122.77 95.48 122.77 95.81 122.77 96.15 C30.37 96.15 -62.03 96.15 -157.23 96.15 C-157.23 64.8 -157.23 33.45 -157.23 1.15 C-120.13 0.9 -120.13 0.9 -104.49 0.8 C-93.72 0.73 -82.95 0.65 -72.18 0.58 C-64.34 0.53 -56.49 0.48 -48.65 0.42 C-44.5 0.4 -40.35 0.37 -36.21 0.34 C-35.41 0.33 -34.61 0.33 -33.79 0.32 C-32.22 0.31 -30.64 0.3 -29.06 0.29 C-25.35 0.26 -21.63 0.24 -17.91 0.23 C-11.94 0.2 -5.97 0.16 0 0 Z " fill="#000000" transform="translate(157.23446655273438,671.845947265625)"/>
<path d="M0 0 C1.67 0 3.33 0 5 -0 C9.51 -0.01 14.02 0.04 18.53 0.1 C23.25 0.15 27.96 0.15 32.68 0.16 C41.61 0.19 50.54 0.25 59.47 0.33 C71.53 0.44 83.6 0.48 95.67 0.53 C114.68 0.6 133.68 0.76 152.69 0.91 C152.69 32.26 152.69 63.61 152.69 95.91 C60.62 95.91 -31.45 95.91 -126.31 95.91 C-123.35 93.54 -120.68 91.41 -117.55 89.38 C-117.2 89.16 -117.2 89.16 -115.43 88 C-114.69 87.52 -113.95 87.03 -113.18 86.53 C-99.35 77.4 -85.97 67.62 -73.31 56.91 C-72.31 56.08 -71.31 55.26 -70.28 54.41 C-31.23 21.99 -31.23 21.99 -22.06 6.84 C-16.61 -1.23 -8.79 -0.17 0 0 Z " fill="#FEFEFE" transform="translate(871.308349609375,672.091796875)"/>
<path d="M0 0 C0.33 0 0.66 0 1 0 C1 138.93 1 277.86 1 421 C-5.93 421 -12.86 421 -20 421 C-38.16 381.37 -51.12 340.29 -57.75 297.19 C-57.95 295.9 -58.15 294.62 -58.35 293.29 C-61.45 272.2 -62.37 251.32 -62.31 230 C-62.31 228.7 -62.31 227.39 -62.31 226.05 C-62.26 207.18 -61.85 188.69 -59 170 C-58.83 168.8 -58.66 167.6 -58.48 166.36 C-51.84 120.37 -38.22 75.82 -18 34 C-17.56 33.09 -17.12 32.18 -16.67 31.24 C-11.5 20.59 -6.04 10.18 0 0 Z " fill="#FEFEFE" transform="translate(127,155)"/>
<path d="M0 0 C42.24 0 84.48 0 128 0 C128 31.35 128 62.7 128 95 C85.76 95 43.52 95 0 95 C0 63.65 0 32.3 0 0 Z " fill="#FEFE00" transform="translate(512,673)"/>
<path d="M0 0 C42.24 0 84.48 0 128 0 C128.31 12.99 128.62 25.99 128.94 39.38 C129.01 41.42 129.01 41.42 129.35 51.76 C129.42 56.79 129.42 56.79 129.43 59.15 C129.45 60.79 129.51 62.42 129.58 64.05 C130.18 77.41 130.18 77.41 126.59 81.68 C123.07 84.73 119.17 86.92 115 88.95 C112.91 90.05 111.09 91.35 109.16 92.72 C104.38 95.75 99.99 95.67 94.45 95.57 C93.94 95.57 93.94 95.57 91.35 95.57 C87.98 95.57 84.62 95.53 81.25 95.49 C78.91 95.48 76.56 95.47 74.22 95.47 C68.07 95.45 61.93 95.4 55.78 95.34 C48.39 95.28 41 95.26 33.62 95.23 C22.41 95.18 11.21 95.09 0 95 C0 63.65 0 32.3 0 0 Z " fill="#00FE01" transform="translate(640,673)"/>
<path d="M0 0 C42.24 0 84.48 0 128 0 C128 31.35 128 62.7 128 95 C102.81 95.48 102.81 95.48 91.96 95.59 C84.59 95.66 77.23 95.74 69.87 95.91 C63.92 96.04 57.98 96.11 52.03 96.14 C49.78 96.16 47.52 96.2 45.27 96.27 C29.59 96.71 19.25 94.25 6.8 84.41 C5 83 5 83 2.02 81.1 C-0.38 78.6 -0.59 76.91 -0.62 73.49 C-0.6 72.77 -0.59 72.04 -0.57 71.29 C-0.57 70.51 -0.57 69.73 -0.57 68.92 C-0.57 66.39 -0.53 63.86 -0.49 61.33 C-0.48 59.76 -0.48 58.2 -0.47 56.63 C-0.45 50.84 -0.38 45.04 -0.31 39.25 C-0.21 26.3 -0.11 13.35 0 0 Z " fill="#FE00FD" transform="translate(256,673)"/>
<path d="M0 0 C50.82 0 101.64 0 154 0 C150.05 3.16 146.17 5.79 141.88 8.38 C132.16 14.34 123.07 21.1 114 28 C113.35 28.5 112.69 28.99 112.02 29.51 C89.43 46.79 67.33 66.19 49 88 C48.16 88.95 47.32 89.91 46.45 90.89 C37.71 100.82 29.8 111.32 22 122 C21.44 122.76 20.88 123.53 20.31 124.31 C14.36 132.49 8.73 140.76 3.68 149.53 C2.81 151.04 1.91 152.52 1 154 C0.67 154 0.34 154 0 154 C0 103.18 0 52.36 0 0 Z " fill="#FD0000" transform="translate(128,0)"/>
<path d="M0 0 C50.49 0 100.98 0 153 0 C153 50.16 153 100.32 153 152 C150.64 149.05 148.5 146.37 146.48 143.24 C146.02 142.54 145.56 141.85 145.09 141.13 C144.61 140.38 144.12 139.64 143.62 138.88 C134.49 125.04 124.71 111.66 114 99 C113.17 98 112.35 97 111.5 95.98 C97.65 79.29 82.61 62.96 66 49 C65.05 48.16 64.09 47.32 63.11 46.45 C53.18 37.71 42.68 29.8 32 22 C31.62 21.72 31.62 21.72 29.69 20.31 C21.51 14.36 13.24 8.73 4.47 3.68 C2.96 2.81 1.48 1.91 0 1 C0 0.67 0 0.34 0 0 Z " fill="#00FEFE" transform="translate(743,0)"/>
<path d="M0 0 C7.68 0.08 7.68 0.08 10.99 2.36 C12.81 4.69 12.81 4.69 14.51 7.46 C17.12 11.56 20.27 14.87 23.62 18.38 C24.27 19.05 24.91 19.73 25.57 20.43 C34.86 30.22 44.22 40 54.56 48.69 C55.52 49.53 56.47 50.37 57.45 51.24 C75.59 67.21 95.5 81.95 116.32 94.26 C116.69 94.5 116.69 94.5 118.56 95.69 C118.56 96.02 118.56 96.35 118.56 96.69 C68.4 96.69 18.24 96.69 -33.44 96.69 C-33.44 65.34 -33.44 33.99 -33.44 1.69 C-10.44 0.69 -10.44 0.69 0 0 Z " fill="#FD0000" transform="translate(161.4375,671.3125)"/>
<path d="M0 0 C13.53 0 27.06 0 41 0 C41 31.35 41 62.7 41 95 C-8.83 95 -58.66 95 -110 95 C-107.05 92.64 -104.37 90.5 -101.24 88.48 C-100.89 88.25 -100.89 88.25 -99.13 87.09 C-98.38 86.61 -97.64 86.12 -96.88 85.62 C-83.04 76.49 -69.66 66.71 -57 56 C-56 55.17 -55 54.35 -53.98 53.5 C-37.29 39.65 -20.98 24.6 -7 8 C-5.85 6.68 -5.85 6.68 0 0 Z " fill="#00FEFE" transform="translate(855,673)"/>
<path d="M0 0 C26.4 0 52.8 0 80 0 C80 32.01 80 64.02 80 97 C53.6 97 27.2 97 0 97 C0 64.99 0 32.98 0 0 Z " fill="#FC00DD" transform="translate(944,576)"/>
<path d="M0 0 C28.71 0 57.42 0 87 0 C80.24 9.01 80.24 9.01 77.48 11.94 C76.86 12.6 76.24 13.26 75.6 13.94 C75.27 14.28 75.27 14.28 73.62 16 C72.94 16.73 72.25 17.45 71.54 18.2 C66.58 23.4 61.57 28.53 56.5 33.62 C55.87 34.26 55.23 34.9 54.58 35.56 C50.22 39.91 45.67 43.98 41 48 C39.95 48.93 38.91 49.85 37.86 50.78 C30.98 56.82 23.88 62.49 16.56 68 C15.72 68.63 14.88 69.27 14.02 69.92 C13.21 70.53 12.4 71.13 11.57 71.75 C10.85 72.28 10.14 72.81 9.41 73.36 C6.39 75.42 3.17 77.19 0 79 C0 52.93 0 26.86 0 0 Z " fill="#FD0000" transform="translate(768,673)"/>
<path d="M0 0 C28.38 0 56.76 0 86 0 C86 25.74 86 51.48 86 78 C82.17 76.47 80.1 75.54 77.03 73.13 C76.3 72.56 75.57 71.99 74.82 71.4 C74.05 70.8 73.29 70.19 72.5 69.56 C71.7 68.94 70.91 68.31 70.09 67.67 C63.26 62.27 56.58 56.7 50 51 C49.64 50.7 49.64 50.7 47.85 49.15 C45.88 47.45 43.94 45.73 42 44 C41.16 43.25 40.31 42.5 39.45 41.73 C33.19 36.08 27.15 30.26 21.19 24.31 C20.83 23.96 20.83 23.96 19.05 22.19 C12.05 15.17 5.97 7.95 0 0 Z " fill="#00FEFE" transform="translate(170,673)"/>
<path d="M0 0 C19.8 0 39.6 0 60 0 C60 3.96 60 7.92 60 12 C40.2 12 20.4 12 0 12 C0 8.04 0 4.08 0 0 Z " fill="#FEFEFE" transform="translate(812,450)"/>
<path d="M0 0 C3.96 0 7.92 0 12 0 C12 19.8 12 39.6 12 60 C8.04 60 4.08 60 0 60 C0 40.2 0 20.4 0 0 Z " fill="#FEFEFE" transform="translate(872,390)"/>
<path d="M0 0 C3.96 0 7.92 0 12 0 C12 19.8 12 39.6 12 60 C8.04 60 4.08 60 0 60 C0 40.2 0 20.4 0 0 Z " fill="#FEFEFE" transform="translate(800,390)"/>
<path d="M0 0 C3.96 0 7.92 0 12 0 C12 19.8 12 39.6 12 60 C8.04 60 4.08 60 0 60 C0 40.2 0 20.4 0 0 Z " fill="#FEFEFE" transform="translate(872,318)"/>
<path d="M0 0 C3.96 0 7.92 0 12 0 C12 19.8 12 39.6 12 60 C8.04 60 4.08 60 0 60 C0 40.2 0 20.4 0 0 Z " fill="#FEFEFE" transform="translate(800,318)"/>
<path d="M0 0 C19.8 0 39.6 0 60 0 C60 3.96 60 7.92 60 12 C40.2 12 20.4 12 0 12 C0 8.04 0 4.08 0 0 Z " fill="#FEFEFE" transform="translate(812,306)"/>
<path d="M0 0 C8.58 0 17.16 0 26 0 C20.37 4.5 20.37 4.5 17.19 6.47 C16.5 6.9 15.82 7.32 15.12 7.76 C14.42 8.19 13.72 8.62 13 9.06 C12.3 9.5 11.6 9.93 10.88 10.38 C7.27 12.61 3.64 14.81 0 17 C0 11.39 0 5.78 0 0 Z " fill="#01FE02" transform="translate(256,0)"/>
<path d="M0 0 C8.25 0 16.5 0 25 0 C25 5.28 25 10.56 25 16 C19.01 12.79 13.21 9.33 7.44 5.75 C6.71 5.3 5.98 4.85 5.23 4.39 C3.47 3.29 1.73 2.15 0 1 C0 0.67 0 0.34 0 0 Z " fill="#FD01FC" transform="translate(743,0)"/>
<path d="M0 0 C1.55 0.99 3.09 1.98 4.69 3 C7.98 5.1 11.29 7.18 14.62 9.21 C15.22 9.57 15.81 9.93 16.42 10.3 C18.13 11.34 19.84 12.37 21.54 13.4 C22.35 13.93 23.16 14.46 24 15 C24 15.33 24 15.66 24 16 C16.08 16 8.16 16 0 16 C0 10.72 0 5.44 0 0 Z " fill="#01FD02" transform="translate(256,752)"/>
<path d="M0 0 C0 4.95 0 9.9 0 15 C-7.59 15 -15.18 15 -23 15 C-19.92 12.54 -17.09 10.32 -13.83 8.2 C-13.45 7.96 -13.45 7.96 -11.57 6.74 C-10.8 6.25 -10.04 5.76 -9.25 5.25 C-8.47 4.74 -7.69 4.24 -6.89 3.71 C-1.13 0 -1.13 0 0 0 Z " fill="#FD01FD" transform="translate(768,753)"/>
<path d="M0 0 C3.96 0 7.92 0 12 0 C12 3.96 12 7.92 12 12 C8.04 12 4.08 12 0 12 C0 8.04 0 4.08 0 0 Z " fill="#000000" transform="translate(800,450)"/>
<path d="M0 0 C3.96 0 7.92 0 12 0 C12 3.96 12 7.92 12 12 C8.04 12 4.08 12 0 12 C0 8.04 0 4.08 0 0 Z " fill="#000000" transform="translate(800,306)"/>
</svg>
