<?xml version="1.0" encoding="UTF-8"?>
<!-- Generator: visioncortex VTracer 0.6.5 -->
<svg version="1.1" xmlns="http://www.w3.org/2000/svg" width="1024" height="768">
<path d="M0 0 C337.92 0 675.84 0 1024 0 C1024 253.44 1024 506.88 1024 768 C686.08 768 348.16 768 0 768 C0 514.56 0 261.12 0 0 Z " fill="#00FECC" transform="translate(0,0)"/>
<path d="M0 0 C168.96 0 337.92 0 512 0 C512 190.08 512 380.16 512 576 C427.52 576 343.04 576 256 576 C256 391.86 256 207.72 256 18 C227.51 38.35 199.62 61.08 177 88 C176.16 88.95 175.32 89.91 174.45 90.89 C165.71 100.82 157.8 111.32 150 122 C149.46 122.74 148.92 123.47 148.36 124.23 C140.17 135.4 132.91 147.01 126 159 C125.56 159.75 125.13 160.51 124.68 161.28 C89.04 223.34 66.08 296.18 65.8 368.12 C65.79 369.33 65.78 370.54 65.78 371.79 C65.76 375.67 65.75 379.55 65.75 383.44 C65.75 384.1 65.75 384.76 65.75 385.44 C65.74 405.14 66.03 424.49 69 444 C69.17 445.2 69.34 446.4 69.52 447.64 C75.65 490.05 87.52 531.91 105.6 570.82 C107 574 107 574 107 576 C152.54 576 198.08 576 245 576 C245 607.68 245 639.36 245 672 C240.8 672.84 237.34 673.15 233.1 673.21 C232.42 673.22 231.75 673.23 231.06 673.24 C228.84 673.27 226.63 673.29 224.42 673.32 C222.88 673.34 221.34 673.36 219.8 673.38 C215.76 673.43 211.71 673.48 207.67 673.53 C203.54 673.58 199.41 673.64 195.28 673.69 C187.19 673.8 179.09 673.9 171 674 C171.79 674.85 172.57 675.69 173.38 676.56 C182.94 686.88 182.94 686.88 186.69 691.25 C190.57 695.72 194.74 699.89 198.94 704.06 C199.7 704.83 200.46 705.59 201.24 706.38 C206 711.13 210.9 715.63 216 720 C217.05 720.93 218.1 721.85 219.14 722.78 C237.21 738.66 257.03 753.32 277.75 765.57 C278.5 766.04 279.24 766.52 280 767 C280 767.33 280 767.66 280 768 C187.6 768 95.2 768 0 768 C0 514.56 0 261.12 0 0 Z " fill="#0000FE" transform="translate(0,0)"/>
<path d="M0 0 C234.72 0 234.72 0 258.31 17.56 C258.68 17.83 258.68 17.83 260.56 19.21 C262.71 20.8 264.86 22.4 267 24 C267.61 24.45 268.21 24.91 268.84 25.37 C277.17 31.6 285.13 38.21 293 45 C293.72 45.61 294.43 46.23 295.17 46.86 C297.13 48.56 299.07 50.27 301 52 C301.84 52.75 302.69 53.5 303.55 54.27 C309.81 59.92 315.85 65.74 321.81 71.69 C322.52 72.39 323.22 73.09 323.95 73.81 C328.5 78.38 332.8 83.11 337 88 C337.93 89.05 338.85 90.1 339.78 91.14 C348.44 100.99 356.26 111.42 364 122 C364.54 122.74 365.08 123.47 365.64 124.23 C373.83 135.4 381.09 147.01 388 159 C388.22 159.38 388.22 159.38 389.32 161.28 C424.96 223.34 447.92 296.18 448.2 368.12 C448.21 369.33 448.22 370.54 448.22 371.79 C448.24 375.67 448.25 379.55 448.25 383.44 C448.25 383.77 448.25 383.77 448.25 385.44 C448.26 405.14 447.97 424.49 445 444 C444.83 445.2 444.66 446.4 444.48 447.64 C439.77 480.28 431.37 511.91 420.06 542.88 C419.69 543.89 419.32 544.91 418.94 545.97 C415.1 556.24 410.53 565.92 406 576 C272.02 576 138.04 576 0 576 C0 385.92 0 195.84 0 0 Z " fill="#FFFF00" transform="translate(512,0)"/>
<path d="M0 0 C93.06 0 186.12 0 282 0 C278.05 3.16 274.17 5.79 269.88 8.38 C260.16 14.34 251.07 21.1 242 28 C241.35 28.5 240.69 28.99 240.02 29.51 C217.43 46.79 195.33 66.19 177 88 C176.16 88.95 175.32 89.91 174.45 90.89 C165.71 100.82 157.8 111.32 150 122 C149.46 122.74 148.92 123.47 148.36 124.23 C140.17 135.4 132.91 147.01 126 159 C125.56 159.75 125.13 160.51 124.68 161.28 C89.04 223.34 66.08 296.18 65.8 368.12 C65.79 369.33 65.78 370.54 65.78 371.79 C65.76 375.67 65.75 379.55 65.75 383.44 C65.75 384.1 65.75 384.76 65.75 385.44 C65.74 405.14 66.03 424.49 69 444 C69.17 445.2 69.34 446.4 69.52 447.64 C75.65 490.05 87.52 531.91 105.6 570.82 C107 574 107 574 107 576 C152.54 576 198.08 576 245 576 C245 607.68 245 639.36 245 672 C240.8 672.84 237.34 673.15 233.1 673.21 C232.42 673.22 231.75 673.23 231.06 673.24 C228.84 673.27 226.63 673.29 224.42 673.32 C222.88 673.34 221.34 673.36 219.8 673.38 C215.76 673.43 211.71 673.48 207.67 673.53 C203.54 673.58 199.41 673.64 195.28 673.69 C187.19 673.8 179.09 673.9 171 674 C171.79 674.85 172.57 675.69 173.38 676.56 C182.94 686.88 182.94 686.88 186.69 691.25 C190.57 695.72 194.74 699.89 198.94 704.06 C199.7 704.83 200.46 705.59 201.24 706.38 C206 711.13 210.9 715.63 216 720 C217.05 720.93 218.1 721.85 219.14 722.78 C237.21 738.66 257.03 753.32 277.75 765.57 C278.5 766.04 279.24 766.52 280 767 C280 767.33 280 767.66 280 768 C187.6 768 95.2 768 0 768 C0 514.56 0 261.12 0 0 Z " fill="#000000" transform="translate(0,0)"/>
<path d="M0 0 C0 184.14 0 368.28 0 558 C54.45 558 108.9 558 165 558 C165 589.68 165 621.36 165 654 C160.83 654.83 157.53 655.12 153.32 655.12 C152.67 655.12 152.01 655.12 151.33 655.12 C149.14 655.12 146.94 655.12 144.74 655.11 C143.17 655.11 141.59 655.11 140.01 655.11 C135.74 655.11 131.46 655.11 127.18 655.1 C122.71 655.1 118.24 655.09 113.77 655.09 C105.31 655.09 96.84 655.08 88.38 655.07 C76.94 655.06 65.5 655.05 54.06 655.05 C36.04 655.04 18.02 655.02 0 655 C0 680.74 0 706.48 0 733 C-3.83 731.47 -5.9 730.54 -8.97 728.13 C-9.33 727.84 -9.33 727.84 -11.18 726.4 C-11.56 726.1 -11.56 726.1 -13.5 724.56 C-14.3 723.94 -15.09 723.31 -15.91 722.67 C-22.74 717.27 -29.42 711.7 -36 706 C-36.71 705.39 -37.42 704.78 -38.15 704.15 C-40.12 702.45 -42.06 700.73 -44 699 C-44.84 698.25 -45.69 697.5 -46.55 696.73 C-52.81 691.08 -58.85 685.26 -64.81 679.31 C-65.52 678.61 -66.22 677.91 -66.95 677.19 C-73.95 670.17 -80.03 662.95 -86 655 C-61.25 654.67 -36.5 654.34 -11 654 C-11 622.32 -11 590.64 -11 558 C-56.54 558 -102.08 558 -149 558 C-161.81 528.89 -161.81 528.89 -165.19 519.12 C-165.59 517.97 -166 516.82 -166.41 515.63 C-175.62 488.99 -182.47 462.04 -186.75 434.19 C-186.95 432.9 -187.15 431.62 -187.35 430.29 C-190.45 409.2 -191.37 388.32 -191.31 367 C-191.31 365.7 -191.31 364.39 -191.31 363.05 C-191.26 344.18 -190.85 325.69 -188 307 C-187.83 305.8 -187.66 304.6 -187.48 303.36 C-180.83 257.34 -167.17 212.87 -147 171 C-146.59 170.13 -146.18 169.27 -145.75 168.37 C-130.8 137.02 -111.43 107.52 -89 81 C-88.18 80 -87.35 79 -86.5 77.98 C-76.79 66.27 -66.35 55.28 -55.62 44.5 C-54.98 43.85 -54.34 43.21 -53.68 42.54 C-49.28 38.16 -44.7 34.05 -40 30 C-38.95 29.07 -37.91 28.15 -36.86 27.22 C-27.65 19.13 -17.93 11.8 -8.07 4.53 C-6.65 3.48 -5.24 2.4 -3.86 1.3 C-2 0 -2 0 0 0 Z " fill="#00FEFE" transform="translate(256,18)"/>
<path d="M0 0 C7.89 4.51 7.89 4.51 10.95 6.85 C11.62 7.37 12.3 7.88 13 8.42 C13.7 8.96 14.4 9.5 15.12 10.06 C15.86 10.63 16.6 11.2 17.36 11.79 C24.08 17 30.58 22.43 37 28 C37.36 28.31 37.36 28.31 39.16 29.85 C41.12 31.55 43.06 33.27 45 35 C45.84 35.75 46.69 36.5 47.55 37.27 C53.81 42.92 59.85 48.74 65.81 54.69 C66.52 55.39 67.22 56.09 67.95 56.81 C72.5 61.38 76.8 66.11 81 71 C81.93 72.05 82.85 73.1 83.78 74.14 C92.44 83.99 100.26 94.42 108 105 C108.54 105.74 109.08 106.47 109.64 107.23 C117.83 118.4 125.09 130.01 132 142 C132.22 142.38 132.22 142.38 133.32 144.28 C168.96 206.34 191.92 279.18 192.2 351.12 C192.21 352.33 192.22 353.54 192.22 354.79 C192.24 358.67 192.25 362.55 192.25 366.44 C192.25 366.77 192.25 366.77 192.25 368.44 C192.26 388.14 191.97 407.49 189 427 C188.91 427.6 188.91 427.6 188.48 430.64 C183.77 463.28 175.37 494.91 164.06 525.88 C163.69 526.89 163.32 527.91 162.94 528.97 C159.1 539.24 154.53 548.92 150 559 C100.5 559 51 559 0 559 C0 374.53 0 190.06 0 0 Z " fill="#FD0000" transform="translate(768,17)"/>
<path d="M0 0 C105.6 0 105.6 0 128 16 C128.71 19.44 128.93 21.93 128.86 25.36 C128.87 26.31 128.88 27.26 128.89 28.24 C128.9 31.45 128.87 34.65 128.84 37.86 C128.84 40.18 128.85 42.49 128.86 44.8 C128.88 51.18 128.85 57.55 128.81 63.92 C128.78 70.09 128.79 76.25 128.8 82.41 C128.81 95.02 128.78 107.63 128.74 120.24 C128.7 132.72 128.67 145.21 128.66 157.7 C128.66 158.47 128.66 159.25 128.66 160.05 C128.66 163.99 128.66 167.93 128.66 171.87 C128.64 199.79 128.59 227.71 128.53 255.64 C128.46 282.76 128.41 309.89 128.38 337.02 C128.38 337.85 128.38 338.69 128.38 339.55 C128.37 347.95 128.36 356.34 128.35 364.74 C128.34 381.84 128.32 398.94 128.3 416.05 C128.3 416.83 128.29 417.62 128.29 418.43 C128.26 442.53 128.23 466.64 128.18 490.75 C128.18 491.43 128.18 492.12 128.18 492.82 C128.12 520.55 128.06 548.27 128 576 C85.76 576 43.52 576 0 576 C0 385.92 0 195.84 0 0 Z " fill="#00FE01" transform="translate(640,0)"/>
<path d="M0 0 C0 190.08 0 380.16 0 576 C-42.24 576 -84.48 576 -128 576 C-128.22 511.07 -128.22 511.07 -128.28 490.98 C-128.28 490.26 -128.29 489.54 -128.29 488.81 C-128.36 464.69 -128.42 440.57 -128.47 416.46 C-128.47 415.67 -128.47 414.88 -128.47 414.07 C-128.5 396.97 -128.53 379.87 -128.56 362.77 C-128.58 354.38 -128.59 346 -128.6 337.61 C-128.61 336.77 -128.61 335.94 -128.61 335.08 C-128.66 308.02 -128.74 280.97 -128.84 253.91 C-128.94 226.11 -129.01 198.31 -129.03 170.51 C-129.04 166.58 -129.04 162.65 -129.04 158.73 C-129.04 157.96 -129.05 157.18 -129.05 156.39 C-129.06 143.94 -129.11 131.5 -129.18 119.06 C-129.24 106.55 -129.26 94.05 -129.25 81.54 C-129.24 74.76 -129.25 67.98 -129.31 61.21 C-129.36 55 -129.37 48.8 -129.33 42.6 C-129.33 40.35 -129.34 38.11 -129.37 35.86 C-129.61 19.26 -129.61 19.26 -125.99 14.18 C-123.35 12.18 -123.35 12.18 -117 9 C-83.46 -11.12 -39.12 0 0 0 Z " fill="#FE00FD" transform="translate(384,0)"/>
<path d="M0 0 C92.73 0 185.46 0 281 0 C281 190.08 281 380.16 281 576 C246.02 576 211.04 576 175 576 C178.35 565.94 178.35 565.94 180.06 562.14 C202.11 511.76 215.99 456.02 216.2 400.88 C216.21 399.67 216.22 398.46 216.22 397.21 C216.24 393.33 216.25 389.45 216.25 385.56 C216.25 384.9 216.25 384.24 216.25 383.56 C216.26 363.86 215.97 344.51 213 325 C212.91 324.4 212.91 324.4 212.48 321.36 C205.83 275.34 192.17 230.87 172 189 C171.59 188.13 171.18 187.27 170.75 186.37 C155.8 155.02 136.43 125.52 114 99 C113.17 98 112.35 97 111.5 95.98 C97.65 79.29 82.61 62.96 66 49 C65.05 48.16 64.09 47.32 63.11 46.45 C53.18 37.71 42.68 29.8 32 22 C31.62 21.72 31.62 21.72 29.69 20.31 C21.51 14.36 13.24 8.73 4.47 3.68 C2.96 2.81 1.48 1.91 0 1 C0 0.67 0 0.34 0 0 Z " fill="#FEFEFE" transform="translate(743,0)"/>
<path d="M0 0 C84.48 0 168.96 0 256 0 C256.33 25.74 256.66 51.48 257 78 C321.52 31.91 321.52 31.91 337.25 5.93 C339.82 2.13 341.78 0.27 346.33 -0.72 C350.68 -0.99 354.96 -0.99 359.31 -0.91 C360.97 -0.91 362.64 -0.91 364.31 -0.91 C368.82 -0.91 373.33 -0.87 377.84 -0.81 C382.55 -0.76 387.27 -0.76 391.99 -0.75 C400.92 -0.72 409.85 -0.66 418.77 -0.58 C430.84 -0.47 442.91 -0.43 454.98 -0.38 C473.99 -0.3 492.99 -0.15 512 0 C512 31.35 512 62.7 512 95 C343.04 95 174.08 95 0 95 C0 63.65 0 32.3 0 0 Z " fill="#FEFE00" transform="translate(512,673)"/>
<path d="M0 0 C80.85 0 161.7 0 245 0 C245 31.68 245 63.36 245 96 C240.8 96.84 237.34 97.15 233.1 97.21 C232.76 97.21 232.76 97.21 231.06 97.24 C228.84 97.27 226.63 97.29 224.42 97.32 C222.88 97.34 221.34 97.36 219.8 97.38 C215.76 97.43 211.71 97.48 207.67 97.53 C203.54 97.58 199.41 97.64 195.28 97.69 C187.19 97.8 179.09 97.9 171 98 C171.79 98.85 172.57 99.69 173.38 100.56 C182.94 110.88 182.94 110.88 186.69 115.25 C190.57 119.72 194.74 123.89 198.94 128.06 C199.7 128.83 200.46 129.59 201.24 130.38 C206 135.13 210.9 139.63 216 144 C217.05 144.93 218.1 145.85 219.14 146.78 C237.21 162.66 257.03 177.32 277.75 189.57 C278.5 190.04 279.24 190.52 280 191 C280 191.33 280 191.66 280 192 C187.6 192 95.2 192 0 192 C0 128.64 0 65.28 0 0 Z " fill="#FEC900" transform="translate(0,576)"/>
<path d="M0 0 C2.51 2.51 3.81 4.15 5.46 7.16 C5.93 8 6.39 8.84 6.87 9.71 C7.12 10.17 7.12 10.17 8.38 12.5 C8.9 13.47 9.42 14.44 9.96 15.44 C42.4 76.09 63.93 144.86 64.2 214.12 C64.21 215.33 64.22 216.54 64.22 217.79 C64.24 221.67 64.25 225.55 64.25 229.44 C64.25 229.77 64.25 229.77 64.25 231.44 C64.26 251.14 63.97 270.49 61 290 C60.91 290.6 60.91 290.6 60.48 293.64 C54.05 338.17 41 381.24 22 422 C14.74 422 7.48 422 0 422 C0 384.38 0 346.76 0 308 C-7.92 308 -15.84 308 -24 308 C-24 304.04 -24 300.08 -24 296 C-43.8 296 -63.6 296 -84 296 C-84 276.2 -84 256.4 -84 236 C-87.96 236 -91.92 236 -96 236 C-96 232.04 -96 228.08 -96 224 C-92.04 224 -88.08 224 -84 224 C-84 204.2 -84 184.4 -84 164 C-64.2 164 -44.4 164 -24 164 C-24 160.04 -24 156.08 -24 152 C-16.08 152 -8.16 152 0 152 C0 101.84 0 51.68 0 0 Z " fill="#000000" transform="translate(896,154)"/>
<path d="M0 0 C73.92 0 147.84 0 224 0 C224 32.01 224 64.02 224 97 C217.97 96.96 217.97 96.96 187.45 96.76 C179.81 96.74 172.16 96.72 164.51 96.72 C152.38 96.72 140.24 96.7 128.11 96.59 C119.27 96.52 110.43 96.48 101.6 96.51 C96.92 96.52 92.24 96.51 87.57 96.44 C83.16 96.38 78.75 96.38 74.34 96.42 C72.73 96.43 71.12 96.41 69.51 96.37 C62.77 96.21 56.71 96.13 51.42 100.85 C48.31 104.02 45.65 107.45 43 111 C41.79 112.42 40.58 113.82 39.34 115.21 C38.81 115.83 38.27 116.44 37.73 117.08 C34.16 121.05 30.35 124.8 26.56 128.56 C25.75 129.37 24.95 130.19 24.12 131.02 C19.24 135.89 14.23 140.52 9 145 C7.95 145.93 6.9 146.85 5.86 147.78 C-1.02 153.82 -8.12 159.49 -15.44 165 C-16.28 165.63 -17.12 166.27 -17.98 166.92 C-18.79 167.53 -19.6 168.13 -20.43 168.75 C-21.15 169.28 -21.86 169.81 -22.59 170.36 C-25.61 172.42 -28.83 174.19 -32 176 C-32 149.93 -32 123.86 -32 97 C-21.44 97 -10.88 97 0 97 C0 64.99 0 32.98 0 0 Z " fill="#FE00D1" transform="translate(800,576)"/>
<path d="M0 0 C84.48 0 168.96 0 256 0 C256 31.35 256 62.7 256 95 C226.77 95.27 197.54 95.49 168.3 95.61 C164.84 95.63 161.38 95.64 157.92 95.66 C157.58 95.66 157.58 95.66 155.84 95.67 C144.72 95.72 133.6 95.82 122.49 95.93 C111.06 96.04 99.63 96.1 88.2 96.13 C81.79 96.14 75.38 96.18 68.97 96.27 C62.93 96.35 56.88 96.38 50.83 96.36 C48.63 96.36 46.42 96.38 44.22 96.43 C25.21 96.81 14.57 90.65 0 79 C0 52.93 0 26.86 0 0 Z " fill="#0000FD" transform="translate(256,673)"/>
<path d="M0 0 C58.08 0 116.16 0 176 0 C176 31.68 176 63.36 176 96 C171.83 96.83 168.53 97.12 164.32 97.12 C163.67 97.12 163.01 97.12 162.33 97.12 C160.14 97.12 157.94 97.12 155.74 97.11 C154.17 97.11 152.59 97.11 151.01 97.11 C146.74 97.11 142.46 97.11 138.18 97.1 C133.71 97.1 129.24 97.09 124.77 97.09 C116.31 97.09 107.84 97.08 99.38 97.07 C87.94 97.06 76.5 97.05 65.06 97.05 C47.04 97.04 29.02 97.02 11 97 C11 122.74 11 148.48 11 175 C7.17 173.47 5.1 172.54 2.03 170.13 C1.3 169.56 0.57 168.99 -0.18 168.4 C-0.56 168.1 -0.56 168.1 -2.5 166.56 C-3.3 165.94 -4.09 165.31 -4.91 164.67 C-11.74 159.27 -18.42 153.7 -25 148 C-25.71 147.39 -26.42 146.78 -27.15 146.15 C-29.12 144.45 -31.06 142.73 -33 141 C-33.84 140.25 -34.69 139.5 -35.55 138.73 C-41.81 133.08 -47.85 127.26 -53.81 121.31 C-54.52 120.61 -55.22 119.91 -55.95 119.19 C-62.95 112.17 -69.03 104.95 -75 97 C-50.25 96.67 -25.5 96.34 0 96 C0 64.32 0 32.64 0 0 Z " fill="#73FE00" transform="translate(245,576)"/>
<path d="M0 0 C1.67 0 3.33 0 5 -0 C9.51 -0.01 14.02 0.04 18.53 0.1 C23.25 0.15 27.96 0.15 32.68 0.16 C41.61 0.19 50.54 0.25 59.47 0.33 C71.53 0.44 83.6 0.48 95.67 0.53 C114.68 0.6 133.68 0.76 152.69 0.91 C152.69 32.26 152.69 63.61 152.69 95.91 C60.62 95.91 -31.45 95.91 -126.31 95.91 C-123.35 93.54 -120.68 91.41 -117.55 89.38 C-117.2 89.16 -117.2 89.16 -115.43 88 C-114.69 87.52 -113.95 87.03 -113.18 86.53 C-99.35 77.4 -85.97 67.62 -73.31 56.91 C-72.31 56.08 -71.31 55.26 -70.28 54.41 C-31.23 21.99 -31.23 21.99 -22.06 6.84 C-16.61 -1.23 -8.79 -0.17 0 0 Z " fill="#FEFEFE" transform="translate(871.308349609375,672.091796875)"/>
<path d="M0 0 C0.33 0 0.66 0 1 0 C1 138.93 1 277.86 1 421 C-5.93 421 -12.86 421 -20 421 C-38.16 381.37 -51.12 340.29 -57.75 297.19 C-57.95 295.9 -58.15 294.62 -58.35 293.29 C-61.45 272.2 -62.37 251.32 -62.31 230 C-62.31 228.7 -62.31 227.39 -62.31 226.05 C-62.26 207.18 -61.85 188.69 -59 170 C-58.83 168.8 -58.66 167.6 -58.48 166.36 C-51.84 120.37 -38.22 75.82 -18 34 C-17.56 33.09 -17.12 32.18 -16.67 31.24 C-11.5 20.59 -6.04 10.18 0 0 Z " fill="#FEFEFE" transform="translate(127,155)"/>
<path d="M0 0 C52.8 0 105.6 0 160 0 C160 32.01 160 64.02 160 97 C107.2 97 54.4 97 0 97 C0 64.99 0 32.98 0 0 Z " fill="#0040FF" transform="translate(640,576)"/>
<path d="M0 0 C42.24 0 84.48 0 128 0 C128 31.35 128 62.7 128 95 C85.76 95 43.52 95 0 95 C0 63.65 0 32.3 0 0 Z " fill="#000000" transform="translate(0,673)"/>
<path d="M0 0 C42.24 0 84.48 0 128 0 C128.31 12.99 128.62 25.99 128.94 39.38 C129.01 41.42 129.01 41.42 129.35 51.76 C129.42 56.79 129.42 56.79 129.43 59.15 C129.45 60.79 129.51 62.42 129.58 64.05 C130.18 77.41 130.18 77.41 126.59 81.68 C123.07 84.73 119.17 86.92 115 88.95 C112.91 90.05 111.09 91.35 109.16 92.72 C104.38 95.75 99.99 95.67 94.45 95.57 C93.94 95.57 93.94 95.57 91.35 95.57 C87.98 95.57 84.62 95.53 81.25 95.49 C78.91 95.48 76.56 95.47 74.22 95.47 C68.07 95.45 61.93 95.4 55.78 95.34 C48.39 95.28 41 95.26 33.62 95.23 C22.41 95.18 11.21 95.09 0 95 C0 63.65 0 32.3 0 0 Z " fill="#00FE01" transform="translate(640,673)"/>
<path d="M0 0 C42.24 0 84.48 0 128 0 C128 31.35 128 62.7 128 95 C102.81 95.48 102.81 95.48 91.96 95.59 C84.59 95.66 77.23 95.74 69.87 95.91 C63.92 96.04 57.98 96.11 52.03 96.14 C49.78 96.16 47.52 96.2 45.27 96.27 C29.59 96.71 19.25 94.25 6.8 84.41 C5 83 5 83 2.02 81.1 C-0.38 78.6 -0.59 76.91 -0.62 73.49 C-0.6 72.77 -0.59 72.04 -0.57 71.29 C-0.57 70.51 -0.57 69.73 -0.57 68.92 C-0.57 66.39 -0.53 63.86 -0.49 61.33 C-0.48 59.76 -0.48 58.2 -0.47 56.63 C-0.45 50.84 -0.38 45.04 -0.31 39.25 C-0.21 26.3 -0.11 13.35 0 0 Z " fill="#FE00FD" transform="translate(256,673)"/>
<path d="M0 0 C21.12 0 42.24 0 64 0 C64 32.01 64 64.02 64 97 C62.51 97.16 62.51 97.16 55 98 C52.52 100.02 50.83 101.64 48.88 104.06 C48.4 104.61 47.93 105.16 47.44 105.72 C45.94 107.47 44.47 109.23 43 111 C37.8 117.14 32.27 122.89 26.56 128.56 C25.75 129.37 24.95 130.19 24.12 131.02 C19.24 135.89 14.23 140.52 9 145 C7.95 145.93 6.9 146.85 5.86 147.78 C-1.02 153.82 -8.12 159.49 -15.44 165 C-16.28 165.63 -17.12 166.27 -17.98 166.92 C-18.79 167.53 -19.6 168.13 -20.43 168.75 C-21.15 169.28 -21.86 169.81 -22.59 170.36 C-25.61 172.42 -28.83 174.19 -32 176 C-32 149.93 -32 123.86 -32 97 C-21.44 97 -10.88 97 0 97 C0 64.99 0 32.98 0 0 Z " fill="#7400FE" transform="translate(800,576)"/>
<path d="M0 0 C50.82 0 101.64 0 154 0 C150.05 3.16 146.17 5.79 141.88 8.38 C132.16 14.34 123.07 21.1 114 28 C113.35 28.5 112.69 28.99 112.02 29.51 C89.43 46.79 67.33 66.19 49 88 C48.16 88.95 47.32 89.91 46.45 90.89 C37.71 100.82 29.8 111.32 22 122 C21.44 122.76 20.88 123.53 20.31 124.31 C14.36 132.49 8.73 140.76 3.68 149.53 C2.81 151.04 1.91 152.52 1 154 C0.67 154 0.34 154 0 154 C0 103.18 0 52.36 0 0 Z " fill="#FD0000" transform="translate(128,0)"/>
<path d="M0 0 C50.49 0 100.98 0 153 0 C153 50.16 153 100.32 153 152 C150.64 149.05 148.5 146.37 146.48 143.24 C146.02 142.54 145.56 141.85 145.09 141.13 C144.61 140.38 144.12 139.64 143.62 138.88 C134.49 125.04 124.71 111.66 114 99 C113.17 98 112.35 97 111.5 95.98 C97.65 79.29 82.61 62.96 66 49 C65.05 48.16 64.09 47.32 63.11 46.45 C53.18 37.71 42.68 29.8 32 22 C31.62 21.72 31.62 21.72 29.69 20.31 C21.51 14.36 13.24 8.73 4.47 3.68 C2.96 2.81 1.48 1.91 0 1 C0 0.67 0 0.34 0 0 Z " fill="#00FEFE" transform="translate(743,0)"/>
<path d="M0 0 C29.7 0 59.4 0 90 0 C90 32.01 90 64.02 90 97 C75.52 97.02 61.04 97.04 46.12 97.06 C41.55 97.07 36.97 97.08 32.26 97.09 C26.68 97.09 26.68 97.09 24.07 97.1 C22.25 97.1 20.42 97.1 18.59 97.11 C15.83 97.11 13.07 97.11 10.31 97.11 C9.9 97.12 9.9 97.12 7.83 97.12 C2.23 97.11 2.23 97.11 0 96 C0 64.32 0 32.64 0 0 Z " fill="#00C8FE" transform="translate(550,576)"/>
<path d="M0 0 C29.7 0 59.4 0 90 0 C90 31.68 90 63.36 90 96 C85.33 96.93 81.08 97.13 76.35 97.11 C75.5 97.11 74.64 97.11 73.75 97.11 C70.92 97.11 68.09 97.11 65.26 97.1 C63.3 97.1 61.33 97.09 59.36 97.09 C54.2 97.09 49.03 97.08 43.86 97.07 C38.59 97.06 33.31 97.05 28.04 97.05 C17.69 97.04 7.35 97.02 -3 97 C-2.5 96.84 -2.5 96.84 0 96 C0 64.32 0 32.64 0 0 Z " fill="#00FE24" transform="translate(331,576)"/>
<path d="M0 0 C13.86 0 27.72 0 42 0 C55.43 14.47 55.43 14.47 60.34 20.14 C63.72 23.93 67.34 27.48 70.94 31.06 C71.7 31.83 72.46 32.59 73.24 33.38 C78 38.13 82.9 42.63 88 47 C89.05 47.93 90.1 48.85 91.14 49.78 C109.21 65.66 129.03 80.32 149.75 92.57 C150.12 92.81 150.12 92.81 152 94 C152 94.33 152 94.66 152 95 C101.84 95 51.68 95 0 95 C0 63.65 0 32.3 0 0 Z " fill="#FD0000" transform="translate(128,673)"/>
<path d="M0 0 C13.53 0 27.06 0 41 0 C41 31.35 41 62.7 41 95 C-8.83 95 -58.66 95 -110 95 C-107.05 92.64 -104.37 90.5 -101.24 88.48 C-100.89 88.25 -100.89 88.25 -99.13 87.09 C-98.38 86.61 -97.64 86.12 -96.88 85.62 C-83.04 76.49 -69.66 66.71 -57 56 C-56 55.17 -55 54.35 -53.98 53.5 C-37.29 39.65 -20.98 24.6 -7 8 C-5.85 6.68 -5.85 6.68 0 0 Z " fill="#00FEFE" transform="translate(855,673)"/>
<path d="M0 0 C26.4 0 52.8 0 80 0 C80 32.01 80 64.02 80 97 C53.6 97 27.2 97 0 97 C0 64.99 0 32.98 0 0 Z " fill="#FE5F00" transform="translate(0,576)"/>
<path d="M0 0 C23.76 0 47.52 0 72 0 C72 32.01 72 64.02 72 97 C48.24 97 24.48 97 0 97 C0 64.99 0 32.98 0 0 Z " fill="#A400FE" transform="translate(864,576)"/>
<path d="M0 0 C22.77 0 45.54 0 69 0 C69 31.68 69 63.36 69 96 C64.87 96.83 61.62 97.12 57.47 97.11 C56.15 97.11 54.83 97.11 53.47 97.11 C52.08 97.11 50.68 97.1 49.29 97.1 C48.66 97.1 48.66 97.1 45.44 97.09 C40.69 97.09 35.94 97.08 31.19 97.06 C25.88 97.05 25.88 97.05 -1 97 C-0.67 64.99 -0.34 32.98 0 0 Z " fill="#E3FE00" transform="translate(176,576)"/>
<path d="M0 0 C19.8 0 39.6 0 60 0 C60 32.01 60 64.02 60 97 C50.84 97.02 41.68 97.04 32.25 97.06 C29.36 97.07 26.48 97.08 23.5 97.09 C21.21 97.09 18.93 97.1 16.64 97.1 C15.45 97.1 14.26 97.11 13.04 97.11 C12.47 97.11 12.47 97.11 9.59 97.11 C8.61 97.12 7.62 97.12 6.61 97.12 C4 97 4 97 0 96 C0 64.32 0 32.64 0 0 Z " fill="#0017FE" transform="translate(740,576)"/>
<path d="M0 0 C16.17 0 32.34 0 49 0 C49 31.68 49 63.36 49 96 C49.33 96.16 49.33 96.16 51 97 C32.52 97 14.04 97 -5 97 C-5 96.67 -5 96.34 -5 96 C-3.35 96 -1.7 96 0 96 C0 64.32 0 32.64 0 0 Z " fill="#00FE47" transform="translate(421,576)"/>
<path d="M0 0 C14.52 0 29.04 0 44 0 C44.04 23.92 44.04 23.92 44.05 34.08 C44.05 41.02 44.06 47.96 44.08 54.91 C44.09 60.5 44.09 66.1 44.09 71.7 C44.1 73.84 44.1 75.98 44.11 78.12 C44.11 81.1 44.11 84.09 44.11 87.07 C44.12 87.97 44.12 88.86 44.12 89.78 C44.11 95.89 44.11 95.89 43 97 C28.81 97 14.62 97 0 97 C0 64.99 0 32.98 0 0 Z " fill="#009AFE" transform="translate(640,576)"/>
<path d="M0 0 C13.86 0 27.72 0 42 0 C42 32.01 42 64.02 42 97 C2 97 2 97 0 96 C0 64.32 0 32.64 0 0 Z " fill="#00F8FC" transform="translate(550,576)"/>
<path d="M0 0 C13.2 0 26.4 0 40 0 C40 32.01 40 64.02 40 97 C26.8 97 13.6 97 0 97 C0 64.99 0 32.98 0 0 Z " fill="#FE00F7" transform="translate(936,576)"/>
<path d="M0 0 C13.2 0 26.4 0 40 0 C40 31.68 40 63.36 40 96 C40.33 96.16 40.33 96.16 42 97 C36.34 97.02 30.68 97.04 25.02 97.05 C23.09 97.06 21.17 97.07 19.24 97.08 C16.48 97.09 13.71 97.09 10.95 97.1 C10.51 97.1 10.51 97.1 8.33 97.11 C2.23 97.11 2.23 97.11 0 96 C0 64.32 0 32.64 0 0 Z " fill="#00FE97" transform="translate(470,576)"/>
<path d="M0 0 C13.2 0 26.4 0 40 0 C40 32.01 40 64.02 40 97 C26.8 97 13.6 97 0 97 C0 64.99 0 32.98 0 0 Z " fill="#FE7700" transform="translate(80,576)"/>
<path d="M0 0 C28.71 0 57.42 0 87 0 C80.24 9.01 80.24 9.01 77.48 11.94 C76.86 12.6 76.24 13.26 75.6 13.94 C75.27 14.28 75.27 14.28 73.62 16 C72.94 16.73 72.25 17.45 71.54 18.2 C66.58 23.4 61.57 28.53 56.5 33.62 C55.87 34.26 55.23 34.9 54.58 35.56 C50.22 39.91 45.67 43.98 41 48 C39.95 48.93 38.91 49.85 37.86 50.78 C30.98 56.82 23.88 62.49 16.56 68 C15.72 68.63 14.88 69.27 14.02 69.92 C13.21 70.53 12.4 71.13 11.57 71.75 C10.85 72.28 10.14 72.81 9.41 73.36 C6.39 75.42 3.17 77.19 0 79 C0 52.93 0 26.86 0 0 Z " fill="#FD0000" transform="translate(768,673)"/>
<path d="M0 0 C28.38 0 56.76 0 86 0 C86 25.74 86 51.48 86 78 C82.17 76.47 80.1 75.54 77.03 73.13 C76.3 72.56 75.57 71.99 74.82 71.4 C74.05 70.8 73.29 70.19 72.5 69.56 C71.7 68.94 70.91 68.31 70.09 67.67 C63.26 62.27 56.58 56.7 50 51 C49.64 50.7 49.64 50.7 47.85 49.15 C45.88 47.45 43.94 45.73 42 44 C41.16 43.25 40.31 42.5 39.45 41.73 C33.19 36.08 27.15 30.26 21.19 24.31 C20.83 23.96 20.83 23.96 19.05 22.19 C12.05 15.17 5.97 7.95 0 0 Z " fill="#00FEFE" transform="translate(170,673)"/>
<path d="M0 0 C11.22 0 22.44 0 34 0 C34 31.68 34 63.36 34 96 C34.99 96.33 35.98 96.66 37 97 C23.8 97 10.6 97 -3 97 C-2.5 96.84 -2.5 96.84 0 96 C0 64.32 0 32.64 0 0 Z " fill="#27FE00" transform="translate(331,576)"/>
<path d="M0 0 C10.56 0 21.12 0 32 0 C32 32.01 32 64.02 32 97 C21.44 97 10.88 97 0 97 C0 64.99 0 32.98 0 0 Z " fill="#D400FE" transform="translate(904,576)"/>
<path d="M0 0 C10.56 0 21.12 0 32 0 C32 32.01 32 64.02 32 97 C21.44 97 10.88 97 0 97 C0 64.99 0 32.98 0 0 Z " fill="#4900FE" transform="translate(800,576)"/>
<path d="M0 0 C10.56 0 21.12 0 32 0 C32 32.01 32 64.02 32 97 C21.44 97 10.88 97 0 97 C0 64.99 0 32.98 0 0 Z " fill="#FE1F00" transform="translate(0,576)"/>
<path d="M0 0 C9.24 0 18.48 0 28 0 C28 32.01 28 64.02 28 97 C18.43 97 8.86 97 -1 97 C-0.67 64.99 -0.34 32.98 0 0 Z " fill="#0055FE" transform="translate(684,576)"/>
<path d="M0 0 C8.91 0 17.82 0 27 0 C27 32.01 27 64.02 27 97 C16.44 97 5.88 97 -5 97 C-5 96.67 -5 96.34 -5 96 C-3.35 96 -1.7 96 0 96 C0 64.32 0 32.64 0 0 Z " fill="#AEFE00" transform="translate(245,576)"/>
<path d="M0 0 C8.91 0 17.82 0 27 0 C27 31.68 27 63.36 27 96 C18.14 98.95 8.34 97 -1 97 C-0.67 64.99 -0.34 32.98 0 0 Z " fill="#FCF900" transform="translate(176,576)"/>
<path d="M0 0 C8.25 0 16.5 0 25 0 C25 31.68 25 63.36 25 96 C25.66 96.33 26.32 96.66 27 97 C23.06 97.03 19.13 97.05 15.19 97.06 C14.07 97.07 12.95 97.08 11.79 97.09 C11.26 97.09 11.26 97.09 8.54 97.1 C7.55 97.1 6.56 97.11 5.54 97.11 C3 97 3 97 0 96 C0 64.32 0 32.64 0 0 Z " fill="#02FE01" transform="translate(365,576)"/>
<path d="M0 0 C7.92 0 15.84 0 24 0 C24 32.01 24 64.02 24 97 C16.08 97 8.16 97 0 97 C0 64.99 0 32.98 0 0 Z " fill="#1900FE" transform="translate(776,576)"/>
<path d="M0 0 C7.92 0 15.84 0 24 0 C24 31.68 24 63.36 24 96 C24.66 96.33 25.32 96.66 26 97 C22.04 97.03 18.08 97.05 14.12 97.06 C13.56 97.07 13.56 97.07 10.71 97.09 C9.63 97.09 8.55 97.09 7.45 97.1 C6.45 97.1 5.46 97.11 4.43 97.11 C2 97 2 97 0 96 C0 64.32 0 32.64 0 0 Z " fill="#00FE62" transform="translate(446,576)"/>
<path d="M0 0 C7.92 0 15.84 0 24 0 C24 32.01 24 64.02 24 97 C16.08 97 8.16 97 0 97 C0 64.99 0 32.98 0 0 Z " fill="#FEAE00" transform="translate(120,576)"/>
<path d="M0 0 C7.92 0 15.84 0 24 0 C24 31.68 24 63.36 24 96 C20.33 97.22 16.94 97.15 13.12 97.12 C12.42 97.13 11.71 97.13 10.98 97.14 C7.1 97.13 3.84 96.77 0 96 C0 64.32 0 32.64 0 0 Z " fill="#5EFE00" transform="translate(307,576)"/>
<path d="M0 0 C7.26 0 14.52 0 22 0 C22 32.01 22 64.02 22 97 C14.08 97 6.16 97 -2 97 C-1.67 96.84 -1.67 96.84 0 96 C0 64.32 0 32.64 0 0 Z " fill="#FE00B8" transform="translate(1002,576)"/>
<path d="M0 0 C6.93 0 13.86 0 21 0 C21 31.68 21 63.36 21 96 C16 97 16 97 0 97 C0 64.99 0 32.98 0 0 Z " fill="#C7FE00" transform="translate(224,576)"/>
<path d="M0 0 C6.6 0 13.2 0 20 0 C20.02 12.5 20.04 25 20.05 37.5 C20.06 43.3 20.06 49.11 20.08 54.91 C20.09 60.5 20.09 66.1 20.09 71.7 C20.1 73.84 20.1 75.98 20.11 78.12 C20.11 81.1 20.11 84.09 20.11 87.07 C20.12 87.97 20.12 88.86 20.12 89.78 C20.11 95.89 20.11 95.89 19 97 C12.73 97 6.46 97 0 97 C0 64.99 0 32.98 0 0 Z " fill="#007DFE" transform="translate(664,576)"/>
<path d="M0 0 C6.6 0 13.2 0 20 0 C20 32.01 20 64.02 20 97 C4 97 4 97 0 96 C0 64.32 0 32.64 0 0 Z " fill="#FE9100" transform="translate(100,576)"/>
<path d="M0 0 C6.27 0 12.54 0 19 0 C19 31.68 19 63.36 19 96 C12.98 98.01 6.34 97 0 97 C0 64.99 0 32.98 0 0 Z " fill="#EB00FE" transform="translate(936,576)"/>
<path d="M0 0 C6.27 0 12.54 0 19 0 C19 31.68 19 63.36 19 96 C12.98 98.01 6.34 97 0 97 C0 64.99 0 32.98 0 0 Z " fill="#FE3600" transform="translate(32,576)"/>
<path d="M0 0 C5.28 0 10.56 0 16 0 C16 32.01 16 64.02 16 97 C10.72 97 5.44 97 0 97 C0 64.99 0 32.98 0 0 Z " fill="#BF00FE" transform="translate(904,576)"/>
<path d="M0 0 C5.28 0 10.56 0 16 0 C16 32.01 16 64.02 16 97 C10.72 97 5.44 97 0 97 C0 64.99 0 32.98 0 0 Z " fill="#8900FE" transform="translate(864,576)"/>
<path d="M0 0 C5.28 0 10.56 0 16 0 C16 32.01 16 64.02 16 97 C10.72 97 5.44 97 0 97 C0 64.99 0 32.98 0 0 Z " fill="#5E00FE" transform="translate(832,576)"/>
<path d="M0 0 C5.28 0 10.56 0 16 0 C16 32.01 16 64.02 16 97 C10.72 97 5.44 97 0 97 C0 64.99 0 32.98 0 0 Z " fill="#3400FE" transform="translate(800,576)"/>
<path d="M0 0 C5.28 0 10.56 0 16 0 C16 32.01 16 64.02 16 97 C10.72 97 5.44 97 0 97 C0 64.99 0 32.98 0 0 Z " fill="#0102FE" transform="translate(760,576)"/>
<path d="M0 0 C5.28 0 10.56 0 16 0 C16 32.01 16 64.02 16 97 C10.72 97 5.44 97 0 97 C0 64.99 0 32.98 0 0 Z " fill="#00DFFE" transform="translate(592,576)"/>
<path d="M0 0 C5.28 0 10.56 0 16 0 C16 31.68 16 63.36 16 96 C16.66 96.33 17.32 96.66 18 97 C15.37 97.03 12.75 97.05 10.12 97.06 C9.38 97.07 8.63 97.08 7.86 97.09 C2.23 97.11 2.23 97.11 0 96 C0 64.32 0 32.64 0 0 Z " fill="#00FEE7" transform="translate(550,576)"/>
<path d="M0 0 C5.28 0 10.56 0 16 0 C16 31.68 16 63.36 16 96 C16.66 96.33 17.32 96.66 18 97 C15.37 97.03 12.75 97.05 10.12 97.06 C9.38 97.07 8.63 97.08 7.86 97.09 C2.23 97.11 2.23 97.11 0 96 C0 64.32 0 32.64 0 0 Z " fill="#00FFB2" transform="translate(510,576)"/>
<path d="M0 0 C5.28 0 10.56 0 16 0 C16 31.68 16 63.36 16 96 C16.66 96.33 17.32 96.66 18 97 C15.37 97.03 12.75 97.05 10.12 97.06 C9.38 97.07 8.63 97.08 7.86 97.09 C2.23 97.11 2.23 97.11 0 96 C0 64.32 0 32.64 0 0 Z " fill="#00FE7D" transform="translate(470,576)"/>
<path d="M0 0 C5.28 0 10.56 0 16 0 C16 32.01 16 64.02 16 97 C10.72 97 5.44 97 0 97 C0 64.99 0 32.98 0 0 Z " fill="#8BFE00" transform="translate(272,576)"/>
<path d="M0 0 C5.28 0 10.56 0 16 0 C16 32.01 16 64.02 16 97 C10.72 97 5.44 97 0 97 C0 64.99 0 32.98 0 0 Z " fill="#FE0900" transform="translate(0,576)"/>
<path d="M0 0 C5.28 0 10.56 0 16 0 C16.02 12.5 16.04 25 16.05 37.5 C16.06 43.3 16.06 49.11 16.08 54.91 C16.09 60.5 16.09 66.1 16.09 71.7 C16.1 73.84 16.1 75.98 16.11 78.12 C16.11 81.1 16.11 84.09 16.11 87.07 C16.12 87.97 16.12 88.86 16.12 89.78 C16.11 95.89 16.11 95.89 15 97 C10.05 97 5.1 97 0 97 C0 64.99 0 32.98 0 0 Z " fill="#FEDE00" transform="translate(160,576)"/>
<path d="M0 0 C4.29 0 8.58 0 13 0 C13 32.01 13 64.02 13 97 C7.72 97 2.44 97 -3 97 C-2.5 96.84 -2.5 96.84 0 96 C0 64.32 0 32.64 0 0 Z " fill="#3EFE00" transform="translate(331,576)"/>
<path d="M0 0 C4.29 0 8.58 0 13 0 C13 32.01 13 64.02 13 97 C7.72 97 2.44 97 -3 97 C-2.51 96.84 -2.51 96.84 0 96 C0 64.32 0 32.64 0 0 Z " fill="#FE4C00" transform="translate(51,576)"/>
<path d="M0 0 C3.96 0 7.92 0 12 0 C12.33 31.35 12.66 62.7 13 95 C14.65 95.33 16.3 95.66 18 96 C18 96.33 18 96.66 18 97 C15.37 97.03 12.75 97.05 10.12 97.06 C9.38 97.07 8.63 97.08 7.86 97.09 C2.23 97.11 2.23 97.11 0 96 C0 64.32 0 32.64 0 0 Z " fill="#00FE0F" transform="translate(390,576)"/>
<path d="M0 0 C3.96 0 7.92 0 12 0 C12 31.68 12 63.36 12 96 C13.32 96.33 14.64 96.66 16 97 C10.72 97 5.44 97 0 97 C0 64.99 0 32.98 0 0 Z " fill="#002DFE" transform="translate(728,576)"/>
<path d="M0 0 C3.96 0 7.92 0 12 0 C12 32.01 12 64.02 12 97 C7.71 97 3.42 97 -1 97 C-0.67 64.99 -0.34 32.98 0 0 Z " fill="#0068FE" transform="translate(684,576)"/>
<path d="M0 0 C3.96 0 7.92 0 12 0 C12 32.01 12 64.02 12 97 C4 97 4 97 0 96 C0 64.32 0 32.64 0 0 Z " fill="#00B2FE" transform="translate(628,576)"/>
<path d="M0 0 C3.63 0 7.26 0 11 0 C11 31.68 11 63.36 11 96 C8 97 8 97 0 97 C0 64.99 0 32.98 0 0 Z " fill="#FE00E2" transform="translate(976,576)"/>
<path d="M0 0 C3.63 0 7.26 0 11 0 C11 32.01 11 64.02 11 97 C3 97 3 97 0 96 C0 64.32 0 32.64 0 0 Z " fill="#12FE00" transform="translate(365,576)"/>
<path d="M0 0 C3.63 0 7.26 0 11 0 C11 31.68 11 63.36 11 96 C8 97 8 97 0 97 C0 64.99 0 32.98 0 0 Z " fill="#4EFF00" transform="translate(320,576)"/>
<path d="M0 0 C3.63 0 7.26 0 11 0 C11 32.01 11 64.02 11 97 C3 97 3 97 0 96 C0 64.32 0 32.64 0 0 Z " fill="#9DFE00" transform="translate(261,576)"/>
<path d="M0 0 C2.97 0 5.94 0 9 0 C9 31.68 9 63.36 9 96 C9.66 96.33 10.32 96.66 11 97 C5.72 97 0.44 97 -5 97 C-5 96.67 -5 96.34 -5 96 C-3.35 96 -1.7 96 0 96 C0 64.32 0 32.64 0 0 Z " fill="#00FE36" transform="translate(421,576)"/>
<path d="M0 0 C19.8 0 39.6 0 60 0 C60 3.96 60 7.92 60 12 C40.2 12 20.4 12 0 12 C0 8.04 0 4.08 0 0 Z " fill="#FEFEFE" transform="translate(812,450)"/>
<path d="M0 0 C3.96 0 7.92 0 12 0 C12 19.8 12 39.6 12 60 C8.04 60 4.08 60 0 60 C0 40.2 0 20.4 0 0 Z " fill="#FEFEFE" transform="translate(872,390)"/>
<path d="M0 0 C3.96 0 7.92 0 12 0 C12 19.8 12 39.6 12 60 C8.04 60 4.08 60 0 60 C0 40.2 0 20.4 0 0 Z " fill="#FEFEFE" transform="translate(800,390)"/>
<path d="M0 0 C3.96 0 7.92 0 12 0 C12 19.8 12 39.6 12 60 C8.04 60 4.08 60 0 60 C0 40.2 0 20.4 0 0 Z " fill="#FEFEFE" transform="translate(872,318)"/>
<path d="M0 0 C3.96 0 7.92 0 12 0 C12 19.8 12 39.6 12 60 C8.04 60 4.08 60 0 60 C0 40.2 0 20.4 0 0 Z " fill="#FEFEFE" transform="translate(800,318)"/>
<path d="M0 0 C19.8 0 39.6 0 60 0 C60 3.96 60 7.92 60 12 C40.2 12 20.4 12 0 12 C0 8.04 0 4.08 0 0 Z " fill="#FEFEFE" transform="translate(812,306)"/>
<path d="M0 0 C8.58 0 17.16 0 26 0 C20.37 4.5 20.37 4.5 17.19 6.47 C16.5 6.9 15.82 7.32 15.12 7.76 C14.42 8.19 13.72 8.62 13 9.06 C12.3 9.5 11.6 9.93 10.88 10.38 C7.27 12.61 3.64 14.81 0 17 C0 11.39 0 5.78 0 0 Z " fill="#01FE02" transform="translate(256,0)"/>
<path d="M0 0 C8.25 0 16.5 0 25 0 C25 5.28 25 10.56 25 16 C19.01 12.79 13.21 9.33 7.44 5.75 C6.71 5.3 5.98 4.85 5.23 4.39 C3.47 3.29 1.73 2.15 0 1 C0 0.67 0 0.34 0 0 Z " fill="#FD01FC" transform="translate(743,0)"/>
<path d="M0 0 C1.55 0.99 3.09 1.98 4.69 3 C7.98 5.1 11.29 7.18 14.62 9.21 C15.22 9.57 15.81 9.93 16.42 10.3 C18.13 11.34 19.84 12.37 21.54 13.4 C22.35 13.93 23.16 14.46 24 15 C24 15.33 24 15.66 24 16 C16.08 16 8.16 16 0 16 C0 10.72 0 5.44 0 0 Z " fill="#01FD02" transform="translate(256,752)"/>
<path d="M0 0 C0 4.95 0 9.9 0 15 C-7.59 15 -15.18 15 -23 15 C-19.92 12.54 -17.09 10.32 -13.83 8.2 C-13.45 7.96 -13.45 7.96 -11.57 6.74 C-10.8 6.25 -10.04 5.76 -9.25 5.25 C-8.47 4.74 -7.69 4.24 -6.89 3.71 C-1.13 0 -1.13 0 0 0 Z " fill="#FD01FD" transform="translate(768,753)"/>
<path d="M0 0 C3.96 0 7.92 0 12 0 C12 3.96 12 7.92 12 12 C8.04 12 4.08 12 0 12 C0 8.04 0 4.08 0 0 Z " fill="#000000" transform="translate(800,450)"/>
<path d="M0 0 C3.96 0 7.92 0 12 0 C12 3.96 12 7.92 12 12 C8.04 12 4.08 12 0 12 C0 8.04 0 4.08 0 0 Z " fill="#000000" transform="translate(800,306)"/>
</svg>
